# MagicaVoxel @ Ephtracy

# group
o Test-Box

# material
mtllib box.mtl
usemtl palette

# normals
vn -1 0 0
vn 1 0 0
vn 0 0 1
vn 0 0 -1
vn 0 -1 0
vn 0 1 0

# texcoords
vt 0.0332031 0.5
vt 0.169922 0.5
vt 0.876953 0.5
vt 0.958984 0.5

# verts
v 0 -1 0
v 0 -1 -2
v 0 -0.8 -0.1
v 0 -0.8 -1.9
v 0 1 -0.1
v 0 1 -1.9
v 0 1.1 0
v 0 1.1 -2
v 1.9 -0.9 -0.1
v 1.9 -0.9 -1.9
v 1.9 -0.8 -0.1
v 1.9 -0.8 -1.9
v 1.9 0.9 -0.1
v 1.9 0.9 -1.9
v 1.9 1 -0.1
v 1.9 1 -1.9
v 0.1 -0.9 -0.1
v 0.1 -0.9 -1.9
v 0.1 -0.8 -0.1
v 0.1 -0.8 -1.9
v 0.1 0.9 -0.1
v 0.1 0.9 -1.9
v 0.1 1 -0.1
v 0.1 1 -1.9
v 2 -1 0
v 2 -1 -2
v 2 -0.8 -0.1
v 2 -0.8 -1.9
v 2 1 -0.1
v 2 1 -1.9
v 2 1.1 0
v 2 1.1 -2
v 0 -1 0
v 0 1.1 0
v 0.1 -0.9 0
v 0.1 0.9 0
v 0.6 0.6 0
v 0.6 0.9 0
v 0.7 0.7 0
v 0.7 0.8 0
v 0.7 1.1 0
v 1.2 0.8 0
v 1.2 0.9 0
v 1.3 0.7 0
v 1.3 0.9 0
v 1.3 1.1 0
v 1.4 0.6 0
v 1.4 0.9 0
v 1.9 -0.9 0
v 1.9 0.9 0
v 2 -1 0
v 2 1.1 0
v 0.1 -0.9 -1.9
v 0.1 -0.8 -1.9
v 0.1 0.9 -1.9
v 0.1 1 -1.9
v 0.6 0.6 -1.9
v 0.6 0.9 -1.9
v 0.6 1 -1.9
v 0.7 0.7 -1.9
v 0.7 0.8 -1.9
v 0.7 1 -1.9
v 1.2 0.8 -1.9
v 1.2 0.9 -1.9
v 1.3 0.7 -1.9
v 1.3 0.9 -1.9
v 1.3 1 -1.9
v 1.4 0.6 -1.9
v 1.4 0.9 -1.9
v 1.4 1 -1.9
v 1.9 -0.9 -1.9
v 1.9 -0.8 -1.9
v 1.9 0.9 -1.9
v 1.9 1 -1.9
v 0.1 -0.9 -0.1
v 0.1 -0.8 -0.1
v 0.1 0.9 -0.1
v 0.1 1 -0.1
v 0.6 0.6 -0.1
v 0.6 0.9 -0.1
v 0.6 1 -0.1
v 0.7 0.7 -0.1
v 0.7 0.8 -0.1
v 0.7 1 -0.1
v 1.2 0.8 -0.1
v 1.2 0.9 -0.1
v 1.3 0.7 -0.1
v 1.3 0.9 -0.1
v 1.3 1 -0.1
v 1.4 0.6 -0.1
v 1.4 0.9 -0.1
v 1.4 1 -0.1
v 1.9 -0.9 -0.1
v 1.9 -0.8 -0.1
v 1.9 0.9 -0.1
v 1.9 1 -0.1
v 0 -1 -2
v 0 1.1 -2
v 0.1 -0.9 -2
v 0.1 0.9 -2
v 0.6 0.6 -2
v 0.6 0.9 -2
v 0.7 0.7 -2
v 0.7 0.8 -2
v 0.7 1.1 -2
v 1.2 0.8 -2
v 1.2 0.9 -2
v 1.3 0.7 -2
v 1.3 0.9 -2
v 1.3 1.1 -2
v 1.4 0.6 -2
v 1.4 0.9 -2
v 1.9 -0.9 -2
v 1.9 0.9 -2
v 2 -1 -2
v 2 1.1 -2
v 0 -1 0
v 2 -1 0
v 0.1 -1 -0.1
v 1.9 -1 -0.1
v 0.1 -1 -1.9
v 1.9 -1 -1.9
v 0 -1 -2
v 2 -1 -2
v 0.1 1 -0.1
v 0.6 1 -0.1
v 0.7 1 -0.1
v 1.3 1 -0.1
v 1.4 1 -0.1
v 1.9 1 -0.1
v 0.1 1 -1.9
v 0.6 1 -1.9
v 0.7 1 -1.9
v 1.3 1 -1.9
v 1.4 1 -1.9
v 1.9 1 -1.9
v 0.1 -0.9 -0.1
v 1.9 -0.9 -0.1
v 0.1 -0.9 -1.9
v 1.9 -0.9 -1.9
v 0 1.1 0
v 0.7 1.1 0
v 1.3 1.1 0
v 2 1.1 0
v 0.1 1.1 -0.1
v 0.6 1.1 -0.1
v 1.4 1.1 -0.1
v 1.9 1.1 -0.1
v 0.1 1.1 -1.9
v 0.6 1.1 -1.9
v 1.4 1.1 -1.9
v 1.9 1.1 -1.9
v 0 1.1 -2
v 0.7 1.1 -2
v 1.3 1.1 -2
v 2 1.1 -2

# faces
f 3/3/1 2/3/1 1/3/1
f 4/3/1 2/3/1 3/3/1
f 5/3/1 3/3/1 1/3/1
f 5/1/1 4/1/1 3/1/1
f 6/3/1 2/3/1 4/3/1
f 6/1/1 4/1/1 5/1/1
f 7/3/1 5/3/1 1/3/1
f 7/3/1 6/3/1 5/3/1
f 8/3/1 2/3/1 6/3/1
f 8/3/1 6/3/1 7/3/1
f 11/3/1 10/3/1 9/3/1
f 12/3/1 10/3/1 11/3/1
f 13/1/1 12/1/1 11/1/1
f 14/1/1 12/1/1 13/1/1
f 15/1/1 14/1/1 13/1/1
f 16/1/1 14/1/1 15/1/1
f 17/3/2 18/3/2 19/3/2
f 19/3/2 18/3/2 20/3/2
f 19/1/2 20/1/2 21/1/2
f 21/1/2 20/1/2 22/1/2
f 21/1/2 22/1/2 23/1/2
f 23/1/2 22/1/2 24/1/2
f 25/3/2 26/3/2 27/3/2
f 27/3/2 26/3/2 28/3/2
f 25/3/2 27/3/2 29/3/2
f 27/1/2 28/1/2 29/1/2
f 28/3/2 26/3/2 30/3/2
f 29/1/2 28/1/2 30/1/2
f 25/3/2 29/3/2 31/3/2
f 29/3/2 30/3/2 31/3/2
f 30/3/2 26/3/2 32/3/2
f 31/3/2 30/3/2 32/3/2
f 35/3/3 34/3/3 33/3/3
f 36/3/3 34/3/3 35/3/3
f 37/1/3 36/1/3 35/1/3
f 38/3/3 34/3/3 36/3/3
f 38/1/3 36/1/3 37/1/3
f 39/3/3 38/3/3 37/3/3
f 40/3/3 38/3/3 39/3/3
f 41/3/3 34/3/3 38/3/3
f 41/3/3 38/3/3 40/3/3
f 42/2/3 40/2/3 39/2/3
f 42/4/3 41/4/3 40/4/3
f 43/4/3 41/4/3 42/4/3
f 44/3/3 39/3/3 37/3/3
f 44/2/3 42/2/3 39/2/3
f 44/2/3 43/2/3 42/2/3
f 45/4/3 41/4/3 43/4/3
f 45/2/3 43/2/3 44/2/3
f 46/4/3 41/4/3 45/4/3
f 47/1/3 37/1/3 35/1/3
f 47/3/3 44/3/3 37/3/3
f 47/3/3 46/3/3 45/3/3
f 47/3/3 45/3/3 44/3/3
f 48/3/3 46/3/3 47/3/3
f 49/3/3 35/3/3 33/3/3
f 49/1/3 47/1/3 35/1/3
f 49/1/3 48/1/3 47/1/3
f 50/3/3 46/3/3 48/3/3
f 50/1/3 48/1/3 49/1/3
f 51/3/3 49/3/3 33/3/3
f 51/3/3 50/3/3 49/3/3
f 52/3/3 46/3/3 50/3/3
f 52/3/3 50/3/3 51/3/3
f 57/1/3 54/1/3 53/1/3
f 57/1/3 55/1/3 54/1/3
f 58/3/3 56/3/3 55/3/3
f 58/1/3 55/1/3 57/1/3
f 59/3/3 56/3/3 58/3/3
f 60/3/3 58/3/3 57/3/3
f 60/3/3 59/3/3 58/3/3
f 61/3/3 59/3/3 60/3/3
f 62/3/3 59/3/3 61/3/3
f 63/2/3 61/2/3 60/2/3
f 63/4/3 62/4/3 61/4/3
f 64/4/3 62/4/3 63/4/3
f 65/3/3 60/3/3 57/3/3
f 65/2/3 63/2/3 60/2/3
f 65/2/3 64/2/3 63/2/3
f 66/4/3 62/4/3 64/4/3
f 66/2/3 64/2/3 65/2/3
f 67/4/3 62/4/3 66/4/3
f 68/1/3 57/1/3 53/1/3
f 68/3/3 65/3/3 57/3/3
f 68/3/3 67/3/3 66/3/3
f 68/3/3 66/3/3 65/3/3
f 69/3/3 67/3/3 68/3/3
f 70/3/3 67/3/3 69/3/3
f 71/1/3 68/1/3 53/1/3
f 71/1/3 69/1/3 68/1/3
f 72/1/3 69/1/3 71/1/3
f 73/3/3 70/3/3 69/3/3
f 73/1/3 69/1/3 72/1/3
f 74/3/3 70/3/3 73/3/3
f 75/1/4 76/1/4 79/1/4
f 76/1/4 77/1/4 79/1/4
f 77/3/4 78/3/4 80/3/4
f 79/1/4 77/1/4 80/1/4
f 80/3/4 78/3/4 81/3/4
f 79/3/4 80/3/4 82/3/4
f 80/3/4 81/3/4 82/3/4
f 82/3/4 81/3/4 83/3/4
f 83/3/4 81/3/4 84/3/4
f 82/2/4 83/2/4 85/2/4
f 83/4/4 84/4/4 85/4/4
f 85/4/4 84/4/4 86/4/4
f 79/3/4 82/3/4 87/3/4
f 82/2/4 85/2/4 87/2/4
f 85/2/4 86/2/4 87/2/4
f 86/4/4 84/4/4 88/4/4
f 87/2/4 86/2/4 88/2/4
f 88/4/4 84/4/4 89/4/4
f 75/1/4 79/1/4 90/1/4
f 79/3/4 87/3/4 90/3/4
f 88/3/4 89/3/4 90/3/4
f 87/3/4 88/3/4 90/3/4
f 90/3/4 89/3/4 91/3/4
f 91/3/4 89/3/4 92/3/4
f 75/1/4 90/1/4 93/1/4
f 90/1/4 91/1/4 93/1/4
f 93/1/4 91/1/4 94/1/4
f 91/3/4 92/3/4 95/3/4
f 94/1/4 91/1/4 95/1/4
f 95/3/4 92/3/4 96/3/4
f 97/3/4 98/3/4 99/3/4
f 99/3/4 98/3/4 100/3/4
f 99/1/4 100/1/4 101/1/4
f 100/3/4 98/3/4 102/3/4
f 101/1/4 100/1/4 102/1/4
f 101/3/4 102/3/4 103/3/4
f 103/3/4 102/3/4 104/3/4
f 102/3/4 98/3/4 105/3/4
f 104/3/4 102/3/4 105/3/4
f 103/2/4 104/2/4 106/2/4
f 104/4/4 105/4/4 106/4/4
f 106/4/4 105/4/4 107/4/4
f 101/3/4 103/3/4 108/3/4
f 103/2/4 106/2/4 108/2/4
f 106/2/4 107/2/4 108/2/4
f 107/4/4 105/4/4 109/4/4
f 108/2/4 107/2/4 109/2/4
f 109/4/4 105/4/4 110/4/4
f 99/1/4 101/1/4 111/1/4
f 101/3/4 108/3/4 111/3/4
f 109/3/4 110/3/4 111/3/4
f 108/3/4 109/3/4 111/3/4
f 111/3/4 110/3/4 112/3/4
f 97/3/4 99/3/4 113/3/4
f 99/1/4 111/1/4 113/1/4
f 111/1/4 112/1/4 113/1/4
f 112/3/4 110/3/4 114/3/4
f 113/1/4 112/1/4 114/1/4
f 97/3/4 113/3/4 115/3/4
f 113/3/4 114/3/4 115/3/4
f 114/3/4 110/3/4 116/3/4
f 115/3/4 114/3/4 116/3/4
f 119/3/5 118/3/5 117/3/5
f 120/3/5 118/3/5 119/3/5
f 121/3/5 119/3/5 117/3/5
f 121/1/5 120/1/5 119/1/5
f 122/3/5 118/3/5 120/3/5
f 122/1/5 120/1/5 121/1/5
f 123/3/5 121/3/5 117/3/5
f 123/3/5 122/3/5 121/3/5
f 124/3/5 118/3/5 122/3/5
f 124/3/5 122/3/5 123/3/5
f 131/1/5 126/1/5 125/1/5
f 132/3/5 127/3/5 126/3/5
f 132/1/5 126/1/5 131/1/5
f 133/4/5 128/4/5 127/4/5
f 133/3/5 127/3/5 132/3/5
f 134/3/5 129/3/5 128/3/5
f 134/4/5 128/4/5 133/4/5
f 135/1/5 130/1/5 129/1/5
f 135/3/5 129/3/5 134/3/5
f 136/1/5 130/1/5 135/1/5
f 137/1/6 138/1/6 139/1/6
f 139/1/6 138/1/6 140/1/6
f 141/3/6 142/3/6 145/3/6
f 145/3/6 142/3/6 146/3/6
f 143/3/6 144/3/6 147/3/6
f 147/3/6 144/3/6 148/3/6
f 141/3/6 145/3/6 149/3/6
f 145/1/6 146/1/6 149/1/6
f 146/3/6 142/3/6 150/3/6
f 149/1/6 146/1/6 150/1/6
f 147/1/6 148/1/6 151/1/6
f 143/3/6 147/3/6 151/3/6
f 148/3/6 144/3/6 152/3/6
f 151/1/6 148/1/6 152/1/6
f 141/3/6 149/3/6 153/3/6
f 149/3/6 150/3/6 153/3/6
f 142/4/6 143/4/6 154/4/6
f 153/3/6 150/3/6 154/3/6
f 150/3/6 142/3/6 154/3/6
f 143/3/6 151/3/6 155/3/6
f 154/4/6 143/4/6 155/4/6
f 151/3/6 152/3/6 155/3/6
f 152/3/6 144/3/6 156/3/6
f 155/3/6 152/3/6 156/3/6
